<svg xmlns="http://www.w3.org/2000/svg" width="50px" height="50px" viewBox="0 0 607.23 618.58"><defs><style>.cls-1{fill:#000000;}</style></defs><g id="Calque_2" data-name="Calque 2"><g id="Calque_1-2" data-name="Calque 1"><path class="cls-1" d="M288.65,311.87a60.21,60.21,0,0,1-3.1,8.46,45.5,45.5,0,0,1-7.6,12.43,38.69,38.69,0,0,1-14,9.84,41,41,0,0,1-16.22,2.93,55.75,55.75,0,0,1-22.62-4.83,58.12,58.12,0,0,1-16.4-10.88,106,106,0,0,0,5.69,10,122.82,122.82,0,0,0,10.71,14,199.59,199.59,0,0,0,18.3,19.34c7.9,7.23,11.86,10.84,17.78,13.64a55.74,55.74,0,0,0,19.68,4.83c2.29.14,8.88.42,21.93-2.76a166.23,166.23,0,0,0,29.52-10.53,234.84,234.84,0,0,0,31.08-16.92c24.75-16.16,42.83-35.59,54-49.38-1.7-2.84-4-6.72-6.56-11.39-2.48-4.49-8.53-15.45-14.16-28.15a292.08,292.08,0,0,1-14.85-42.12,105.31,105.31,0,0,1-4,9.84,115.58,115.58,0,0,1-15.36,24.34,128.24,128.24,0,0,1-18.65,19.51,131.54,131.54,0,0,1-23.31,15.54,148.15,148.15,0,0,1-23.82,9.84C293.48,310.52,290.69,311.32,288.65,311.87Z"/><path class="cls-1" d="M375.67,221.4a124.34,124.34,0,0,1-5.18,12.95A117.94,117.94,0,0,1,358.92,254a107.69,107.69,0,0,1-18.64,19.68,106.15,106.15,0,0,1-16.41,10.88A110.71,110.71,0,0,1,279.5,297a43.25,43.25,0,0,1,.52,9.84,37.12,37.12,0,0,1-4.49,16.58,34.2,34.2,0,0,1-10.7,11.74,37,37,0,0,1-10.71,4.48c-13.51,3.1-33.94-5.83-47.3-20-14.44-15.34-17.49-33.5-18.3-41.27a41,41,0,0,0,8.46,3.28c4,1.07,8.88,2.38,14.67,1a21.94,21.94,0,0,0,11-6c5.24-5.58,3.26-10.52,7.77-21.93,2.81-7.09,4.21-10.64,7.42-13.29,9.89-8.16,27.39-3.91,33.5-2.42,2.76.67,2.56.81,4.31,1.21,18.57,4.19,38.07-12.26,47.48-20.2,13.85-11.69,22-23.15,30.22-34.88a262.92,262.92,0,0,0,19.68-33c-.4,2.82-.91,6.79-1.38,11.57a222.47,222.47,0,0,0-1.38,25A118.91,118.91,0,0,0,375.67,221.4Z"/><path class="cls-1" d="M305.06,101.75c9.82,5.1,20.33,11.09,31.24,18.13A385.26,385.26,0,0,1,368.42,143a130.39,130.39,0,0,1-8.12,16.23c-7.07,12-14.17,19.57-22.27,28.14a211.66,211.66,0,0,1-30.39,26.93c-9.57,6.81-14.36,10.22-20.71,12.09-3.8,1.11-19.28,5.67-33.5,1a30.08,30.08,0,0,0-12.77-1.72c-2.51.23-5.95.6-9,2.93s-3.36,4.86-5.87,10a68.64,68.64,0,0,1-8.11,12.61C213.24,257,210,261.13,204.4,263a23.14,23.14,0,0,1-8.46.86c-10.12-.89-22.81-14.4-32.46-34.53a94.13,94.13,0,0,0,8.64-3.8c6.21-3.11,12.78-6.39,18.81-12.43,6.35-6.34,9.64-13.27,14.16-22.79,2.09-4.4,1.5-3.77,2.76-6.21,8.27-15.93,23.33-22.78,28.49-25a76.66,76.66,0,0,1,12.95-4.14c10.18-2.6,25.45-5,31.25-5.87,3-.46,4.2-.61,5.87-1.38,8-3.69,10.66-13.72,11.57-17.09,1.65-6.16.39-7.35,1.9-14.51A55.26,55.26,0,0,1,305.06,101.75Z"/><path class="cls-1" d="M272.94,84c3.7,2.47,7.67,5,11.92,7.43,5.93,3.44,11.66,6.41,17.09,9a38.05,38.05,0,0,0-4.15,6.74c-1.73,3.6-2.2,6.07-3.62,11.56-2,7.68-3,11.52-4,13.47s-4,7.94-9.84,10.88c-5.27,2.66-9.37,1.16-16.41.86a64,64,0,0,0-25.37,4.49c-3.62,1.31-17.86,6.68-27.63,20a110.63,110.63,0,0,0-13,24.34,28.82,28.82,0,0,1-2.41,5.35c-5.29,8.9-14.55,12.33-16.23,12.95-17.85,6.61-37.73-6.47-45.75-11.74-7.32-4.81-6.83-6.07-11.4-8.8-9.67-5.79-26.66-8.95-58.53,5a134.45,134.45,0,0,1,14.85-28.31c6.58-9.55,11.16-16.2,20.2-21.58a51.36,51.36,0,0,1,21.93-7.25c5.63-.47,7.35.43,16.57.17,5.88-.17,11.19-.32,16.92-1.56,17.7-3.81,30.48-16,32.63-18.12a86.12,86.12,0,0,1,9.67-8.81,78,78,0,0,1,11.91-7.42,183.69,183.69,0,0,1,31.25-12.43A180.73,180.73,0,0,1,272.94,84Z"/><path class="cls-1" d="M268.45,81a144.85,144.85,0,0,0-16.57,1.38A146.67,146.67,0,0,0,212,94a93.87,93.87,0,0,0-15.89,8.8c-5.07,3.62-5,4.45-11.74,10-7.44,6.12-13.19,10.76-21.75,14.16a51.42,51.42,0,0,1-12.26,3.28,48.86,48.86,0,0,1-12.43,0c-9.77-1-19.05.92-30.21,3.28C97,135.79,79,139.6,63.52,153.89c-5.14,4.75-15,15.31-20.72,33.5-2.95-4.67-14.13-23.56-9-46.62,5.87-26.2,28.68-39.19,33.84-42.12,7.64-4.35,16.82-7.51,21.58-9.15a169.67,169.67,0,0,1,24.18-6.39,99.72,99.72,0,0,1,42.64-34.53c35.52-14.88,67.83-3.39,75.27-.52a112.16,112.16,0,0,0,14.51,16.58A111.81,111.81,0,0,0,268.45,81Z"/><path class="cls-1" d="M232.89,39.43A278.55,278.55,0,0,0,197.5,18.19,218.09,218.09,0,0,0,171.43,7c-9.82-3.39-15-5.18-22.62-6.21A83.22,83.22,0,0,0,109.44,4.9c-5.13,1.88-6.4,2.95-11.91,5.52C90.66,13.64,69.35,23.59,48,23,26.34,22.45,9.44,11.22,0,3.35c2.67,8.53,13.06,38.1,43.84,58a107.17,107.17,0,0,0,60.43,16.92,114.85,114.85,0,0,1,50.58-38C191.45,26.47,223.58,36.23,232.89,39.43Z"/><path class="cls-1" d="M235.13,43.05c9.4,6.5,24,16.16,42.47,26.76C301,83.19,314.33,88.75,331,97.44A442.15,442.15,0,0,1,400.7,143,232.71,232.71,0,0,0,428,257.14a230.36,230.36,0,0,0,56.46,68.71,50.94,50.94,0,0,0-2.94,17.44c.09,7.7,2,9.1,2.59,9.5,3.24,2,8.23-1,8.81-1.39a179.83,179.83,0,0,1-60.09,57,223.81,223.81,0,0,0,20.72-56.11,335.11,335.11,0,0,1-71.82-207.7A375.82,375.82,0,0,0,346.15,118c-16.71-11-31.59-18.84-40.06-23.3-5.82-3.08-19.42-10.1-31.08-16.06-7.39-3.79-7.07-3.59-7.76-4C258.55,69.93,246.91,61.11,235.13,43.05Z"/><path class="cls-1" d="M553,193.66c.8,1.48,9.35,17.75,1.49,32.34a31.08,31.08,0,0,1-11,11.51c-5.67,3.31-9.62,2.88-15.54,4a54.67,54.67,0,0,0-34.53,23.6,49.4,49.4,0,0,0-6.21,15.65,62.66,62.66,0,0,0,.34,30,36.14,36.14,0,0,1-16.69-4.37c-14.07-7.76-17.55-22.62-18.18-25.32-3-12.88,1.26-23.35,3.22-28,8.1-19.06,25.33-26.75,28.78-28.2,7.47-3.14,14.9-4.13,24.51-5.41,10.67-1.42,16.39-1,25.21-4.84,7.47-3.25,10.89-6.85,12.32-8.51A30,30,0,0,0,553,193.66Z"/><path class="cls-1" d="M541.18,202.87a65.45,65.45,0,0,1-12.32-3.8c-8.08-3.4-9.1-5.76-14.15-7.71-10.22-4-20.78,0-26.82,2.3a52.84,52.84,0,0,0-18.42,11.86,21.26,21.26,0,0,1,18.3,7.82,50.86,50.86,0,0,0-16.22-4c-12.83-1-22.51,3.31-27.86,5.76a66.42,66.42,0,0,0-21.29,15.54,192.79,192.79,0,0,0,21.75,49.72,61.69,61.69,0,0,1,6.91-32.57,57.11,57.11,0,0,1,19.45-21.87c15.64-10.08,35-10.51,38.56-10.59,5.9-.13,10.72.44,17.38-2.07A37.94,37.94,0,0,0,541.18,202.87Z"/><path class="cls-1" d="M121.57,474.2a106.74,106.74,0,0,0,27.07,3.58c9.18,0,13.13-1.23,21.4-.86a75.17,75.17,0,0,1,25.38,5.7c.67-2.17,5.32-16.47,20.38-23.14a37.74,37.74,0,0,1,27.62-.86,82.23,82.23,0,0,1,47.13-48,65.38,65.38,0,0,0,34.88-12.26,64.42,64.42,0,0,0,18.3-20.71,74.3,74.3,0,0,1-61.46,16.23,250.84,250.84,0,0,0-50.94,25.55c-17.37,11.35-23.8,18.66-36.25,27.28C180.07,457.09,156.81,469.05,121.57,474.2Z"/><path class="cls-1" d="M215.28,530.79a298.8,298.8,0,0,1,58.35-36.26c-1.34-3.24-6.75-17.26-.69-33.15a44.64,44.64,0,0,1,15.71-20.2c3.62,0,27.85-.29,45.06-20.2,14.09-16.29,14.26-35,14.16-39.71A55.92,55.92,0,0,1,327,408c-16.71,11.31-34.08,9.56-38.5,9a59.62,59.62,0,0,0-38.85,46.79,22.15,22.15,0,0,0-7.42.17,22.48,22.48,0,0,0-9.49,4.32,46.34,46.34,0,0,0-5.53,12.6c-.9,3.35-1.1,5.64-1.73,12.6-1.08,12-1.62,18.05-1.89,19.34A46.6,46.6,0,0,1,215.28,530.79Z"/><path class="cls-1" d="M349.08,403.72a48.74,48.74,0,0,1-11.39,30.38c-13.27,15.54-31.73,16.62-34.88,16.75a8.81,8.81,0,0,0-5.35-3.8c-6.27-1.05-13.54,7.9-15.89,16.06-2.62,9.14.59,18.46,2.08,22.79a106.23,106.23,0,0,1,3.62,10.53,67.12,67.12,0,0,1,2.07,11.74c.28,4.06.25,12.46-4.48,23.13l30.38-24a13.06,13.06,0,0,0,3.63-7.08c.33-2.49-.32-4.21-1.38-8.12-.66-2.43-1.57-6-2.42-10.53a41.26,41.26,0,0,1,26.76-25.21,91.86,91.86,0,0,0,7.25-52.65Z"/><path class="cls-1" d="M419.18,314.8A215.8,215.8,0,0,1,363.24,372a334.42,334.42,0,0,0-6.05,63.36,328.7,328.7,0,0,0,5.87,60.08,152.81,152.81,0,0,0,5.7,21.41c4.35,12.27,7.87,16.61,11.4,25.38A89.79,89.79,0,0,1,386.37,576,67.32,67.32,0,0,1,399,547.53a66.44,66.44,0,0,1,13.63-13.29q2.94,6.12,5.87,12.26a235.05,235.05,0,0,0,1.9-29.53c0-21.12,0-31.68-.17-35a42,42,0,0,1,5.7-24.69c8.56-15.21,25.83-25.21,28-26.42,13.43-7.6,18.21-5.79,29.35-14.33a69.89,69.89,0,0,0,12.26-12.08,38.94,38.94,0,0,1-7.43-9,40.71,40.71,0,0,1-5.52-22.79,154.05,154.05,0,0,1-57.49,43.68,328.6,328.6,0,0,0,14.5-38.16c2.73-8.8,4.94-17.23,6.73-25.2-4.45-5.23-9-11-13.64-17.44C427.47,328.32,423,321.35,419.18,314.8Z"/><path class="cls-1" d="M599.42,334.31c.11-1.85.62-12.84-7.08-19.51-9.18-8-22.62-3.33-27.28-1.72-14.26,4.92-21.5,17-24.17,22.44-8.59,17.63-2.8,34.82-1,40.05A60.92,60.92,0,0,0,557,401.3c-5.5-.64-9.9-1.37-12.78-1.9-9.18-1.68-12-2.88-17.26-2.07a24.07,24.07,0,0,0-9.15,3.28,24.31,24.31,0,0,0-6.05,5.52c-2.78,3.34-7.59,7.66-16.4,11.74,2.38-3.14,5.35-8.13,4.66-13.81-.74-6.17-5.14-7.7-9.32-15.88-1.53-3-5.88-11.5-4.14-21.06,1.84-10.13,9.56-16.3,12.6-18.48-4.87.36-7.22-.94-8.46-2.24-2.56-2.7-1-6-2.07-15.2-.63-5.3-1.08-8.82-3.45-12.25a18.44,18.44,0,0,0-7.77-6.22,23.53,23.53,0,0,1,19.51,11.4,28.2,28.2,0,0,0-1.38-7.26c-.94-2.8-1.81-3.9-3.28-7.42a45,45,0,0,1-2.59-7.6,26.76,26.76,0,0,1,.34-12.43,37.37,37.37,0,0,0,15.71.35c7.65-1.53,9.34-4.57,19-7.25a65.45,65.45,0,0,1,15.54-2.25A69.7,69.7,0,0,1,560.75,283c25.43,7.1,39,24.06,42.81,30.73a14.73,14.73,0,0,1,2.08,6.21C606.22,326.72,601.54,332.14,599.42,334.31Z"/><path class="cls-1" d="M426.94,461.21a60.26,60.26,0,0,0-4.14,17.61c-.52,6.8.58,8.65.86,21.41.16,6.93,0,12.31-.17,16-.26,7.1-.73,13.24-1.21,18.13l3.28-2.24a16.46,16.46,0,0,0,10.19,15,28.58,28.58,0,0,1-1.73-17.1,28.07,28.07,0,0,1,5.36-11.39l6.21.52-1.9-3.45a17.38,17.38,0,0,0,6.73,2.76,17.93,17.93,0,0,0,11.4-1.9c-13.65-8.62-19.22-17.42-21.75-24-1.34-3.47-2.14-7.13-5-14.33A146.43,146.43,0,0,0,426.94,461.21Z"/><path class="cls-1" d="M447.49,520.43a17.3,17.3,0,0,0-5.52,3.79,17.57,17.57,0,0,0-4.32,7.43l7.94,6.73L442,549.78l5.17,11.39,6.05,2.42-2.07-7.94c1.09-1.61,2.18-3.23,3.28-4.84q2-5.52,4-11l11.05-4.49,3.45-5.18a24.09,24.09,0,0,0,4.49-.86,24.42,24.42,0,0,0,5-2.07,68.49,68.49,0,0,0,6.22,7.25,67.53,67.53,0,0,0,10.19,8.46q-2-4.11-4-8.8-1.44-3.47-2.59-6.74a39.49,39.49,0,0,0,14.33-.69,17.17,17.17,0,0,1-11.92-10.18,8.5,8.5,0,0,0,4-2.59,8.22,8.22,0,0,0,1.73-3.46,22.35,22.35,0,0,1-20.54-.51l-4.67,3.45-6.56-.17L455.78,526Z"/><path class="cls-1" d="M409.68,540.63a23.92,23.92,0,0,0-6.56,5.18,25.19,25.19,0,0,0-6,13.46L405.54,584l-4.49,14,8.28,20.63,1.73-22.88a39.07,39.07,0,0,1,22.45-14.33A96.3,96.3,0,0,1,450.25,590a95.17,95.17,0,0,1,17.09,14.16q-4.74-10-9.49-20l12.08,1.73a30.17,30.17,0,0,1-7.59-5.87,30.54,30.54,0,0,1-7.25-13.47,75.94,75.94,0,0,1-13.3-4.83,77,77,0,0,1-11.05-6.39L428,557l-4.83-2.59-5.36,8.29a74.59,74.59,0,0,1-4.14-8.64A73.58,73.58,0,0,1,409.68,540.63Z"/><path class="cls-1" d="M562.82,396.81a13,13,0,0,0,8.8,1.21c1.47-.34,5.82-1.35,7.43-5.35,1.78-4.44-1.41-8.55-1.9-9.15S574.3,380,572,380.58c-1.67.43-2.46,2.42-2.59,2.76-1,2.64.75,4-.17,6.74-.44,1.32-1.23,2.16-2.59,3.62A18.41,18.41,0,0,1,562.82,396.81Z"/><path class="cls-1" d="M567.31,328.79c-.56.51-6,5.74-5,13.64A16.52,16.52,0,0,0,569.72,354a5.07,5.07,0,0,1,.61-3.06,6.72,6.72,0,0,1,1.81-1.73,7.61,7.61,0,0,0,2.63-4.7c.22-2.5-1.85-4.66-3.84-6.74-1.78-1.86-2.55-1.95-3.28-3.36A8,8,0,0,1,567.31,328.79Z"/><path class="cls-1" d="M602,334.83a48.22,48.22,0,0,0-5,5.87c.41-1.18,3.25-10-1.9-17.61a19.4,19.4,0,0,0-11.05-7.6c-11.6-3.24-22.3,4.78-25.37,7.08-13.72,10.27-16.15,26.24-16.75,30.22-1.75,11.48,1.07,20.31,2.76,25.37,1.85,5.57,4.25,12.47,10.88,16.92A21.9,21.9,0,0,0,559,397a7.75,7.75,0,0,1,2.94-2.76c1.86-1,3.35-.61,4.14-1.73.65-.91.31-2.08.17-2.93-.69-4.26,2-10.32,5.53-11.22,2.21-.56,5,.8,6.38,2.59s1,3.6,2.42,4.49c1.62,1,4-.12,4.84-.52,6.82-3.22,10.69-14,12.08-18.3,2.62-8.05,2.17-10.6,4.66-20.38a144.83,144.83,0,0,1,5.05-15.88A48.43,48.43,0,0,0,602,334.83Zm-27.32,17c-1.2,1.16-2.63,1.77-3.24,3.63a5.3,5.3,0,0,0-.21,2.24,17.38,17.38,0,0,1-2.77-31.55,11.06,11.06,0,0,0,.31,3.8,12.15,12.15,0,0,0,2.37,4.57c1.4,1.83,2,1.75,3.37,3.41a11.64,11.64,0,0,1,2.8,5A10.19,10.19,0,0,1,574.69,351.79Z"/></g></g></svg>