<svg width="23" height="26" viewBox="0 0 34 36" fill="none" xmlns="http://www.w3.org/2000/svg">
<path d="M5.99992 34.4998C8.02496 34.4998 9.66659 32.8582 9.66659 30.8332C9.66659 28.8081 8.02496 27.1665 5.99992 27.1665C3.97487 27.1665 2.33325 28.8081 2.33325 30.8332C2.33325 32.8582 3.97487 34.4998 5.99992 34.4998Z" stroke="black" stroke-width="2.75" stroke-linecap="round" stroke-linejoin="round"/>
<path d="M26.1667 34.4998C28.1917 34.4998 29.8333 32.8582 29.8333 30.8332C29.8333 28.8081 28.1917 27.1665 26.1667 27.1665C24.1416 27.1665 22.5 28.8081 22.5 30.8332C22.5 32.8582 24.1416 34.4998 26.1667 34.4998Z" stroke="black" stroke-width="2.75" stroke-linecap="round" stroke-linejoin="round"/>
<path d="M26.1666 27.1667H5.99992V1.5H2.33325" stroke="black" stroke-width="2.75" stroke-linecap="round" stroke-linejoin="round"/>
<path d="M6 5.1665L31.6667 6.99984L29.8333 19.8332H6" stroke="black" stroke-width="2.75" stroke-linecap="round" stroke-linejoin="round"/>
</svg>
